<?xml version="1.0" encoding="utf-8"?>
<!-- Generator: Adobe Illustrator 18.1.0, SVG Export Plug-In . SVG Version: 6.00 Build 0)  -->
<svg version="1.1" id="Layer_1" xmlns="http://www.w3.org/2000/svg" xmlns:xlink="http://www.w3.org/1999/xlink" x="0px" y="0px"
	 viewBox="0 0 784 36" enable-background="new 0 0 784 36" xml:space="preserve">
<rect fill="#CCCCCC" width="784" height="36"/>
<g>
	<path fill="#EEEEEE" stroke="#555555" stroke-width="0.5" stroke-miterlimit="10" d="M522.7,30.9H45.1c-1.1,0-2-0.9-2-2V18.6
		c0-1.1,0.9-2,2-2h477.5c1.1,0,2,0.9,2,2v10.3C524.7,30,523.8,30.9,522.7,30.9z"/>
	<line fill="none" stroke="#555555" stroke-width="0.5" stroke-miterlimit="10" x1="60.1" y1="19.1" x2="60.1" y2="28.3"/>
	<line fill="none" stroke="#555555" stroke-width="1.25" stroke-miterlimit="10" x1="51.4" y1="20.4" x2="51.4" y2="27"/>
	<line fill="none" stroke="#555555" stroke-width="1.25" stroke-miterlimit="10" x1="54.7" y1="23.7" x2="48.2" y2="23.7"/>
</g>
<g>
	<path fill="none" stroke="#555555" stroke-width="0.5" stroke-miterlimit="10" d="M35.1,30.9H7.1c-1.1,0-2-0.9-2-2V18.6
		c0-1.1,0.9-2,2-2h27.9c1.1,0,2,0.9,2,2v10.3C37.1,30,36.2,30.9,35.1,30.9z"/>
	<line fill="none" stroke="#555555" stroke-width="0.5" stroke-miterlimit="10" x1="21.1" y1="18.6" x2="21.1" y2="28.8"/>
	<polygon fill="#777777" stroke="#555555" stroke-width="0.5" stroke-miterlimit="10" points="16.1,26.7 10.8,24 16.1,21.3 	"/>
	<polygon fill="#777777" stroke="#555555" stroke-width="0.5" stroke-miterlimit="10" points="26.2,26.7 31.5,24 26.2,21.3 	"/>
</g>
<g>
	<circle opacity="0.65" fill="#ED1C24" stroke="#777777" stroke-width="0.5" stroke-miterlimit="10" cx="9" cy="8.1" r="4"/>
	<circle opacity="0.8" fill="#FFCA5F" stroke="#777777" stroke-width="0.5" stroke-miterlimit="10" cx="22.1" cy="8.1" r="4"/>
	<circle opacity="0.8" fill="#54B948" stroke="#777777" stroke-width="0.5" stroke-miterlimit="10" cx="35.1" cy="8.1" r="4"/>
</g>
<path fill="none" stroke="#555555" stroke-width="0.5" stroke-miterlimit="10" d="M776.5,30.9H763c-1.1,0-2-0.9-2-2V18.6
	c0-1.1,0.9-2,2-2h13.5c1.1,0,2,0.9,2,2v10.3C778.5,30,777.6,30.9,776.5,30.9z"/>
<path fill="#EEEEEE" stroke="#555555" stroke-width="0.5" stroke-miterlimit="10" d="M746.5,30.9H538c-3.8,0-7-3.1-7-7v-0.3
	c0-3.8,3.2-7,7-7h208.5c3.8,0,7,3.1,7,7v0.3C753.5,27.7,750.3,30.9,746.5,30.9z"/>
</svg>
