<?xml version="1.0" encoding="utf-8"?>
<!-- Generator: Adobe Illustrator 18.1.1, SVG Export Plug-In . SVG Version: 6.00 Build 0)  -->
<svg version="1.1" id="Layer_1" xmlns="http://www.w3.org/2000/svg" xmlns:xlink="http://www.w3.org/1999/xlink" x="0px" y="0px"
	 viewBox="0 0 20 20" enable-background="new 0 0 20 20" xml:space="preserve">
<path display="none" d="M20,3.8c-0.8,0.3-1.5,0.5-2.3,0.7c0.9-0.5,1.5-1.3,1.8-2.3c-0.8,0.5-1.7,0.8-2.6,1c-0.8-0.8-1.8-1.3-3-1.3
	c-2.3,0-4.1,1.9-4.1,4.1c0,0.3,0.1,0.7,0.1,0.9C6.4,6.7,3.4,5.1,1.3,2.6c-0.4,0.6-0.5,1.3-0.5,2C0.8,6,1.5,7.3,2.7,8
	C2,8.1,1.3,7.8,0.8,7.6l0,0c0,2,1.4,3.7,3.3,4c-0.3,0.1-0.7,0.2-1.1,0.2c-0.3,0-0.5,0-0.8-0.1c0.5,1.7,2.1,2.8,3.9,2.8
	c-1.4,1.1-3.2,1.8-5.1,1.8c-0.3,0-0.7,0-1,0c1.8,1.1,4,1.8,6.3,1.8c7.6,0,11.7-6.3,11.7-11.7c0-0.2,0-0.4,0-0.5
	C18.7,5.4,19.4,4.7,20,3.8z"/>
<path display="none" d="M15.1,10c0,2.8-2.3,5.1-5.1,5.1S4.9,12.8,4.9,10c0-0.3,0-0.7,0.1-1H1.5v6.8c0,1.5,1.2,2.7,2.7,2.7h11.6
	c1.5,0,2.7-1.2,2.7-2.7V9H15C15.1,9.3,15.1,9.7,15.1,10z M15.8,1.5H4.2c-1.5,0-2.7,1.2-2.7,2.7v2.9h4.3c1-1.4,2.5-2.2,4.2-2.2
	s3.2,0.8,4.2,2.2h4.3V4.2C18.5,2.7,17.3,1.5,15.8,1.5z M17.1,4.8c0,0.2-0.2,0.5-0.5,0.5h-1.4c-0.2,0-0.5-0.2-0.5-0.5V3.4
	c0-0.2,0.2-0.5,0.5-0.5h1.4c0.2,0,0.5,0.2,0.5,0.5V4.8z M13.2,10c0-1.7-1.4-3.2-3.2-3.2S6.8,8.3,6.8,10s1.4,3.2,3.2,3.2
	S13.2,11.7,13.2,10z"/>
<path display="none" d="M0,10.2c0,0.9,0.1,1.7,0.2,2.5c0.2,0.7,0.4,1.4,0.7,1.9s0.7,1,1.1,1.4c0.5,0.4,1,0.8,1.5,1
	c0.5,0.3,1.2,0.5,1.8,0.6C6.1,17.9,6.8,18,7.6,18c0.7,0.1,1.5,0.1,2.4,0.1s1.7,0,2.4-0.1s1.4-0.2,2.1-0.3c0.7-0.2,1.3-0.4,1.9-0.6
	c0.5-0.3,1-0.6,1.5-1s0.9-0.9,1.1-1.4c0.3-0.5,0.5-1.2,0.7-1.9s0.2-1.6,0.2-2.5c0-1.6-0.5-3-1.6-4.2c0.1-0.2,0.1-0.3,0.2-0.5
	s0.1-0.5,0.1-0.8c0-0.4,0-0.8,0-1.3c-0.1-0.5-0.2-1-0.4-1.5h-0.1c-0.1,0-0.3,0-0.5,0s-0.5,0.1-0.8,0.2c-0.3,0.1-0.7,0.3-1.2,0.5
	s-1,0.6-1.6,1c-1-0.4-2.4-0.6-4-0.6S7,3.3,6.1,3.5C5.5,3.2,5,2.8,4.5,2.6C4,2.3,3.6,2.2,3.3,2.1C3,2,2.7,1.9,2.4,1.9s-0.4,0-0.5,0
	c-0.1,0-0.1,0-0.2,0c-0.2,0.5-0.3,1-0.4,1.5s-0.1,0.9,0,1.3c0,0.4,0.1,0.7,0.1,0.8c0,0.2,0.1,0.4,0.2,0.5C0.5,7.2,0,8.6,0,10.2z
	 M2.5,12.7c0-0.9,0.4-1.8,1.3-2.6C4,9.9,4.3,9.7,4.6,9.6C5,9.5,5.3,9.4,5.8,9.4c0.4,0,0.8,0,1.2,0c0.4,0,0.9,0.1,1.4,0.1
	c0.6,0,1.1,0.1,1.5,0.1s0.9,0,1.5-0.1c0.6,0,1.1-0.1,1.4-0.1c0.4,0,0.8,0,1.2,0s0.8,0.1,1.2,0.2c0.3,0.1,0.6,0.3,0.9,0.5
	c0.9,0.8,1.3,1.6,1.3,2.6c0,0.6-0.1,1.1-0.2,1.5s-0.3,0.8-0.5,1.1s-0.5,0.5-0.9,0.8c-0.4,0.2-0.8,0.4-1.1,0.5
	c-0.4,0.1-0.8,0.2-1.4,0.3C12.7,17,12.2,17,11.7,17c-0.4,0-1,0-1.7,0s-1.3,0-1.7,0c-0.4,0-1-0.1-1.5-0.1c-0.6-0.1-1.1-0.2-1.4-0.3
	c-0.4-0.1-0.8-0.3-1.1-0.5c-0.4-0.2-0.7-0.4-0.9-0.8C3,15,2.8,14.6,2.7,14.2C2.5,13.8,2.5,13.3,2.5,12.7z M12.5,12.5
	c0,1,0.6,1.9,1.2,1.9s1.2-0.8,1.2-1.9s-0.6-1.9-1.2-1.9S12.5,11.5,12.5,12.5z M5,12.5c0,1,0.6,1.9,1.2,1.9s1.2-0.8,1.2-1.9
	s-0.6-1.9-1.2-1.9S5,11.5,5,12.5z"/>
<path d="M19.6,7C19.6,6.9,19.6,6.9,19.6,7c0-0.1,0-0.1,0-0.1c0,0,0,0,0,0c0,0,0,0,0-0.1c0,0,0,0,0,0c0,0,0,0,0-0.1c0,0,0,0,0,0
	c0,0,0,0,0-0.1c0,0,0,0,0,0c0,0,0,0,0,0c0,0,0,0,0,0c0,0,0,0,0,0c0,0,0,0,0,0c0,0,0,0,0,0l-8.8-5.9c-0.3-0.2-0.6-0.2-0.9,0L0.7,6.4
	c0,0,0,0,0,0c0,0,0,0,0,0c0,0,0,0,0,0c0,0,0,0,0,0c0,0,0,0,0,0c0,0,0,0,0,0c0,0,0,0,0,0.1c0,0,0,0,0,0c0,0,0,0,0,0.1c0,0,0,0,0,0
	c0,0,0,0,0,0.1c0,0,0,0,0,0c0,0,0,0,0,0.1c0,0,0,0,0,0c0,0,0,0.1,0,0.1v5.9c0,0,0,0.1,0,0.1c0,0,0,0,0,0c0,0,0,0,0,0.1c0,0,0,0,0,0
	c0,0,0,0,0,0.1c0,0,0,0,0,0c0,0,0,0,0,0.1c0,0,0,0,0,0c0,0,0,0,0,0.1c0,0,0,0,0,0c0,0,0,0,0,0c0,0,0,0,0,0c0,0,0,0,0,0c0,0,0,0,0,0
	c0,0,0,0,0,0l8.8,5.9c0.1,0.1,0.3,0.1,0.5,0.1c0.2,0,0.3,0,0.5-0.1l8.8-5.9c0,0,0,0,0,0c0,0,0,0,0,0c0,0,0,0,0,0c0,0,0,0,0,0
	c0,0,0,0,0,0c0,0,0,0,0,0c0,0,0,0,0-0.1c0,0,0,0,0,0c0,0,0,0,0-0.1c0,0,0,0,0,0c0,0,0,0,0-0.1c0,0,0,0,0,0c0,0,0,0,0-0.1
	c0,0,0,0,0,0c0,0,0-0.1,0-0.1V7.1C19.6,7,19.6,7,19.6,7z M10.8,2.7l6.5,4.3L14.4,9l-3.6-2.4V2.7z M9.2,2.7v3.9L5.6,9L2.7,7.1
	L9.2,2.7z M2,8.6L4.1,10L2,11.4V8.6z M9.2,17.3l-6.5-4.3L5.6,11l3.6,2.4L9.2,17.3L9.2,17.3z M10,12l-2.9-2L10,8l2.9,2L10,12z
	 M10.8,17.3v-3.9l3.6-2.4l2.9,1.9L10.8,17.3z M18,11.4L15.9,10L18,8.6V11.4z"/>
</svg>
