<?xml version="1.0" encoding="utf-8"?>
<!-- Generator: Adobe Illustrator 18.1.1, SVG Export Plug-In . SVG Version: 6.00 Build 0)  -->
<svg version="1.1" id="Layer_1" xmlns="http://www.w3.org/2000/svg" xmlns:xlink="http://www.w3.org/1999/xlink" x="0px" y="0px"
	 viewBox="0 0 200 200" enable-background="new 0 0 200 200" xml:space="preserve">
<path d="M-0.1,102.5c0,9.1,0.9,17.3,2.5,24.6c1.7,7.4,4,13.7,7,19.1c3,5.4,6.8,10.2,11.4,14.3c4.6,4.1,9.6,7.5,15.1,10.1
	c5.4,2.6,11.6,4.7,18.5,6.4c7,1.7,14,2.8,21.3,3.4c7.2,0.7,15.2,1,23.9,1c8.7,0,16.7-0.3,24-1c7.2-0.7,14.4-1.8,21.4-3.4
	c7-1.7,13.2-3.7,18.7-6.4c5.4-2.6,10.5-6,15.2-10.1s8.5-8.9,11.5-14.3c3.1-5.4,5.4-11.8,7.1-19.1c1.7-7.4,2.5-15.6,2.5-24.6
	c0-16.2-5.4-30.2-16.3-42c0.6-1.6,1.1-3.4,1.6-5.3c0.5-1.9,0.9-4.9,1.4-8.5c0.4-3.7,0.3-7.9-0.5-12.8c-0.8-4.9-2.1-9.8-4.2-14.8
	l-1.5-0.3c-1-0.2-2.8-0.1-5.1,0.1c-2.4,0.3-5.1,0.9-8.3,1.8c-3.2,0.9-7.2,2.6-12.2,5.1c-5,2.5-10.3,5.7-15.8,9.5
	c-9.5-2.6-22.6-3.9-39.2-3.9c-16.6,0-29.6,1.3-39.1,3.9c-5.5-3.8-10.8-6.9-15.9-9.5c-5.1-2.5-9.1-4.2-12.1-5.1
	c-3-0.9-5.8-1.5-8.4-1.7c-2.6-0.2-4.3-0.3-5-0.2c-0.7,0.1-1.2,0.2-1.6,0.3c-2,5.1-3.4,10-4.2,14.8c-0.8,4.9-0.9,9.1-0.5,12.8
	c0.4,3.7,0.9,6.5,1.4,8.5c0.5,2,1,3.7,1.6,5.3C5.4,72.3-0.1,86.3-0.1,102.5z M24.5,127c0-9.4,4.3-18,12.8-25.8
	c2.5-2.4,5.5-4.2,8.9-5.3c3.4-1.2,7.2-1.9,11.5-2.1c4.3-0.1,8.4-0.1,12.3,0.1c3.9,0.2,8.7,0.6,14.5,0.9s10.7,0.6,14.9,0.6
	c4.2,0,9.2-0.2,14.9-0.6c5.8-0.4,10.5-0.7,14.5-0.9c3.9-0.2,8-0.3,12.3-0.1c4.2,0.1,8.1,0.9,11.5,2.1c3.4,1.2,6.4,3,8.9,5.3
	c8.6,7.7,12.8,16.3,12.8,25.8c0,5.6-0.7,10.6-2.1,14.9c-1.4,4.3-3.2,8-5.4,10.9c-2.2,2.9-5.2,5.4-9.1,7.5c-3.9,2.1-7.7,3.6-11.3,4.7
	c-3.7,1.1-8.4,1.9-14.2,2.6c-5.8,0.6-11,1-15.5,1.1c-4.5,0.1-10.3,0.2-17.3,0.2c-7,0-12.8-0.1-17.3-0.2c-4.5-0.1-9.7-0.5-15.5-1.1
	s-10.5-1.5-14.2-2.6s-7.5-2.7-11.3-4.7c-3.9-2.1-6.9-4.5-9.1-7.5c-2.2-2.9-4-6.6-5.4-10.9C25.2,137.6,24.5,132.6,24.5,127z
	 M125,125.1c0,10.4,5.6,18.8,12.5,18.8c6.9,0,12.5-8.4,12.5-18.8s-5.6-18.8-12.5-18.8C130.6,106.3,125,114.7,125,125.1z M50,125.1
	c0,10.4,5.6,18.8,12.5,18.8c6.9,0,12.5-8.4,12.5-18.8s-5.6-18.8-12.5-18.8C55.6,106.3,50,114.7,50,125.1z"/>
</svg>
