<?xml version="1.0" encoding="utf-8"?>
<!-- Generator: Adobe Illustrator 18.1.1, SVG Export Plug-In . SVG Version: 6.00 Build 0)  -->
<svg version="1.1" id="Layer_1" xmlns="http://www.w3.org/2000/svg" xmlns:xlink="http://www.w3.org/1999/xlink" x="0px" y="0px"
	 viewBox="0 0 200 200" enable-background="new 0 0 200 200" xml:space="preserve">
<path d="M151.2,100c0,28.1-23.1,51.2-51.2,51.2S48.8,128.1,48.8,100c0-3.5,0.5-6.9,1-9.9H15.2v68c0,14.8,11.8,26.6,26.6,26.6h116.3
	c14.8,0,26.6-11.8,26.6-26.6v-68h-34.6C150.7,93.1,151.2,96.6,151.2,100z M158.1,15.3H41.9c-14.8,0-26.6,11.8-26.6,26.6v28.6h42.9
	c9.3-13.3,24.6-21.7,41.9-21.7s32.5,8.3,41.9,21.7h42.8V41.9C184.7,27.1,172.8,15.3,158.1,15.3z M171.4,47.8c0,2.5-2,4.9-4.9,4.9
	h-14.3c-2.5,0-4.9-2-4.9-4.9V33.5c0-2.5,2-4.9,4.9-4.9h14.3c2.5,0,4.9,2,4.9,4.9V47.8z M131.5,100c0-17.2-14.3-31.5-31.5-31.5
	S68.5,82.8,68.5,100s14.2,31.5,31.5,31.5C117.3,131.5,131.5,117.2,131.5,100z"/>
</svg>
