<?xml version="1.0" encoding="utf-8"?>
<!-- Generator: Adobe Illustrator 18.1.1, SVG Export Plug-In . SVG Version: 6.00 Build 0)  -->
<svg version="1.1" id="Layer_1" xmlns="http://www.w3.org/2000/svg" xmlns:xlink="http://www.w3.org/1999/xlink" x="0px" y="0px"
	 viewBox="0 0 20 20" enable-background="new 0 0 20 20" xml:space="preserve">
<path display="none" d="M20,3.8c-0.8,0.3-1.5,0.5-2.3,0.7c0.9-0.5,1.5-1.3,1.8-2.3c-0.8,0.5-1.7,0.8-2.6,1c-0.8-0.8-1.8-1.3-3-1.3
	c-2.3,0-4.1,1.9-4.1,4.1c0,0.3,0.1,0.7,0.1,0.9C6.4,6.7,3.4,5.1,1.3,2.6C0.9,3.2,0.8,3.9,0.8,4.6c0,1.4,0.7,2.7,1.9,3.4
	C2,8.1,1.3,7.8,0.8,7.6v0c0,2,1.4,3.7,3.3,4c-0.3,0.1-0.7,0.2-1.1,0.2c-0.3,0-0.5,0-0.8-0.1c0.5,1.7,2.1,2.8,3.9,2.8
	c-1.4,1.1-3.2,1.8-5.1,1.8c-0.3,0-0.7,0-1,0c1.8,1.1,4,1.8,6.3,1.8c7.6,0,11.7-6.3,11.7-11.7c0-0.2,0-0.4,0-0.5
	C18.7,5.4,19.4,4.7,20,3.8z"/>
<path display="none" d="M15.1,10c0,2.8-2.3,5.1-5.1,5.1S4.9,12.8,4.9,10c0-0.3,0-0.7,0.1-1H1.5v6.8c0,1.5,1.2,2.7,2.7,2.7h11.6
	c1.5,0,2.7-1.2,2.7-2.7V9H15C15.1,9.3,15.1,9.7,15.1,10z M15.8,1.5H4.2c-1.5,0-2.7,1.2-2.7,2.7v2.9h4.3C6.8,5.7,8.3,4.9,10,4.9
	s3.2,0.8,4.2,2.2h4.3V4.2C18.5,2.7,17.3,1.5,15.8,1.5z M17.1,4.8c0,0.2-0.2,0.5-0.5,0.5h-1.4c-0.2,0-0.5-0.2-0.5-0.5V3.4
	c0-0.2,0.2-0.5,0.5-0.5h1.4c0.2,0,0.5,0.2,0.5,0.5V4.8z M13.2,10c0-1.7-1.4-3.2-3.2-3.2S6.8,8.3,6.8,10s1.4,3.2,3.2,3.2
	S13.2,11.7,13.2,10z"/>
<path display="none" d="M0,10.2c0,0.9,0.1,1.7,0.2,2.5c0.2,0.7,0.4,1.4,0.7,1.9s0.7,1,1.1,1.4c0.5,0.4,1,0.8,1.5,1
	c0.5,0.3,1.2,0.5,1.8,0.6C6.1,17.9,6.8,18,7.6,18c0.7,0.1,1.5,0.1,2.4,0.1c0.9,0,1.7,0,2.4-0.1c0.7-0.1,1.4-0.2,2.1-0.3
	c0.7-0.2,1.3-0.4,1.9-0.6c0.5-0.3,1-0.6,1.5-1c0.5-0.4,0.9-0.9,1.1-1.4c0.3-0.5,0.5-1.2,0.7-1.9c0.2-0.7,0.2-1.6,0.2-2.5
	c0-1.6-0.5-3-1.6-4.2c0.1-0.2,0.1-0.3,0.2-0.5s0.1-0.5,0.1-0.8c0-0.4,0-0.8,0-1.3c-0.1-0.5-0.2-1-0.4-1.5l-0.1,0c-0.1,0-0.3,0-0.5,0
	c-0.2,0-0.5,0.1-0.8,0.2c-0.3,0.1-0.7,0.3-1.2,0.5s-1,0.6-1.6,1C13,3.3,11.6,3.1,10,3.1S7,3.3,6.1,3.5C5.5,3.2,5,2.8,4.5,2.6
	C4,2.3,3.6,2.2,3.3,2.1C3,2,2.7,1.9,2.4,1.9s-0.4,0-0.5,0c-0.1,0-0.1,0-0.2,0c-0.2,0.5-0.3,1-0.4,1.5c-0.1,0.5-0.1,0.9,0,1.3
	c0,0.4,0.1,0.7,0.1,0.8c0,0.2,0.1,0.4,0.2,0.5C0.5,7.2,0,8.6,0,10.2z M2.5,12.7c0-0.9,0.4-1.8,1.3-2.6C4,9.9,4.3,9.7,4.6,9.6
	C5,9.5,5.3,9.4,5.8,9.4c0.4,0,0.8,0,1.2,0c0.4,0,0.9,0.1,1.4,0.1c0.6,0,1.1,0.1,1.5,0.1c0.4,0,0.9,0,1.5-0.1c0.6,0,1.1-0.1,1.4-0.1
	c0.4,0,0.8,0,1.2,0c0.4,0,0.8,0.1,1.2,0.2c0.3,0.1,0.6,0.3,0.9,0.5c0.9,0.8,1.3,1.6,1.3,2.6c0,0.6-0.1,1.1-0.2,1.5
	c-0.1,0.4-0.3,0.8-0.5,1.1c-0.2,0.3-0.5,0.5-0.9,0.8c-0.4,0.2-0.8,0.4-1.1,0.5c-0.4,0.1-0.8,0.2-1.4,0.3c-0.6,0.1-1.1,0.1-1.6,0.1
	c-0.4,0-1,0-1.7,0s-1.3,0-1.7,0c-0.4,0-1-0.1-1.5-0.1c-0.6-0.1-1.1-0.2-1.4-0.3c-0.4-0.1-0.8-0.3-1.1-0.5c-0.4-0.2-0.7-0.4-0.9-0.8
	C3,15,2.8,14.6,2.7,14.2C2.5,13.8,2.5,13.3,2.5,12.7z M12.5,12.5c0,1,0.6,1.9,1.2,1.9s1.2-0.8,1.2-1.9s-0.6-1.9-1.2-1.9
	C13.1,10.6,12.5,11.5,12.5,12.5z M5,12.5c0,1,0.6,1.9,1.2,1.9s1.2-0.8,1.2-1.9s-0.6-1.9-1.2-1.9C5.6,10.6,5,11.5,5,12.5z"/>
<path d="M19.1,7.1C19.1,7.1,19.1,7.1,19.1,7.1C19.1,7.1,19.1,7,19.1,7.1c0-0.1,0-0.1,0-0.1c0,0,0,0,0-0.1c0,0,0,0,0,0c0,0,0,0,0-0.1
	c0,0,0,0,0,0c0,0,0,0,0,0c0,0,0,0,0,0c0,0,0,0,0,0c0,0,0,0,0,0c0,0,0,0,0,0c0,0,0,0,0,0c0,0,0,0,0,0L10.4,1c-0.3-0.2-0.6-0.2-0.9,0
	L1.2,6.6c0,0,0,0,0,0c0,0,0,0,0,0c0,0,0,0,0,0c0,0,0,0,0,0c0,0,0,0,0,0c0,0,0,0,0,0c0,0,0,0,0,0c0,0,0,0,0,0c0,0,0,0,0,0.1
	c0,0,0,0,0,0c0,0,0,0,0,0.1c0,0,0,0,0,0c0,0,0,0,0,0.1c0,0,0,0,0,0c0,0,0,0.1,0,0.1v5.6c0,0,0,0.1,0,0.1c0,0,0,0,0,0c0,0,0,0,0,0.1
	c0,0,0,0,0,0c0,0,0,0,0,0.1c0,0,0,0,0,0c0,0,0,0,0,0.1c0,0,0,0,0,0c0,0,0,0,0,0c0,0,0,0,0,0c0,0,0,0,0,0c0,0,0,0,0,0c0,0,0,0,0,0
	c0,0,0,0,0,0c0,0,0,0,0,0L9.6,19c0.1,0.1,0.3,0.1,0.4,0.1c0.2,0,0.3,0,0.4-0.1l8.3-5.6c0,0,0,0,0,0c0,0,0,0,0,0c0,0,0,0,0,0
	c0,0,0,0,0,0c0,0,0,0,0,0c0,0,0,0,0,0c0,0,0,0,0,0c0,0,0,0,0,0c0,0,0,0,0-0.1c0,0,0,0,0,0c0,0,0,0,0-0.1c0,0,0,0,0,0c0,0,0,0,0-0.1
	c0,0,0,0,0,0c0,0,0-0.1,0-0.1V7.2C19.1,7.2,19.1,7.1,19.1,7.1z M10.8,3.1l6.1,4.1l-2.7,1.8l-3.4-2.3V3.1z M9.2,3.1v3.7L5.8,9.1
	L3.1,7.2L9.2,3.1z M2.4,8.7l2,1.3l-2,1.3V8.7z M9.2,16.9l-6.1-4.1l2.7-1.8l3.4,2.3L9.2,16.9L9.2,16.9z M10,11.9L7.2,10L10,8.1
	l2.8,1.9L10,11.9z M10.8,16.9v-3.7l3.4-2.3l2.7,1.8L10.8,16.9z M17.6,11.3l-2-1.3l2-1.3V11.3z"/>
</svg>
