<?xml version="1.0" encoding="utf-8"?>
<!-- Generator: Adobe Illustrator 19.0.0, SVG Export Plug-In . SVG Version: 6.00 Build 0)  -->
<svg version="1.1" xmlns="http://www.w3.org/2000/svg" xmlns:xlink="http://www.w3.org/1999/xlink" x="0px" y="0px"
	 viewBox="0 0 200 200" style="enable-background:new 0 0 200 200;" xml:space="preserve">
<style type="text/css">
	.st0{opacity:0.5;fill:#FFFFFF;}
	.st1{opacity:0.6;fill:none;stroke:#C9445B;stroke-width:3;stroke-miterlimit:10;}
	.st2{fill:none;stroke:#000000;stroke-miterlimit:10;}
	.st3{fill:#FFFFFF;stroke:#000000;stroke-miterlimit:10;}
</style>
<g id="brackets">
	<path id="right-bracket" class="st0" d="M174.5,100c-2.5-1.9-4.2-3.6-5-5.3c-1.1-2.1-1.7-4.7-1.7-7.8V40.6c0-2.7-0.8-5-2.4-6.8
		c-1.6-1.8-3.6-2.8-6-3c-1.6-0.1-2.6-0.4-3-0.9c-0.6-0.6-1-1.4-1-2.3s0.3-1.6,0.9-2.2c0.6-0.6,1.5-0.9,2.7-0.9
		c3.9,0,7.1,1.2,9.7,3.7c3.5,3.3,5.2,7.4,5.2,12.3v46.4c0,2.7,0.8,4.9,2.5,6.8c1.6,1.8,3.7,2.8,6.2,3c1.3,0.1,2.3,0.5,2.8,1
		c0.6,0.5,0.8,1.3,0.8,2.2c0,1-0.3,1.7-0.8,2.3c-0.6,0.5-1.5,0.9-2.8,1c-2.5,0.2-4.6,1.2-6.2,3s-2.4,4.1-2.4,6.8v46.4
		c0,4.6-1.5,8.4-4.4,11.5c-2.9,3.1-6.4,4.6-10.5,4.6c-1.2,0-2.1-0.3-2.7-0.9c-0.6-0.6-0.9-1.3-0.9-2.3c0-0.9,0.3-1.6,0.9-2.2
		c0.5-0.4,1.5-0.7,3.1-0.9c2.4-0.2,4.5-1.3,6-3.1c1.6-1.8,2.4-4.1,2.4-6.8v-46.3c0-3.1,0.5-5.6,1.5-7.5
		C170.3,103.7,172,101.8,174.5,100z"/>
	<path id="left-bracket" class="st0" d="M25.5,100c2.4,1.9,4.1,3.6,5,5.3c1.1,2.2,1.7,4.8,1.7,7.8v46.3c0,2.8,0.8,5.1,2.4,6.8
		c1.6,1.8,3.6,2.8,6,3c1.5,0.1,2.5,0.4,3,0.9c0.6,0.6,1,1.3,1,2.2c0,0.9-0.3,1.7-1,2.2c-0.6,0.6-1.6,0.8-2.8,0.8
		c-3.9,0-7.1-1.2-9.7-3.7c-3.5-3.4-5.2-7.5-5.2-12.3v-46.4c0-2.7-0.8-4.9-2.4-6.8s-3.7-2.8-6.2-3c-1.4-0.1-2.3-0.5-2.9-1
		c-0.5-0.5-0.8-1.3-0.8-2.3c0-0.9,0.3-1.7,0.8-2.2c0.5-0.5,1.5-0.9,2.9-1c2.5-0.2,4.6-1.2,6.2-3c1.6-1.8,2.4-4.1,2.4-6.8V40.6
		c0-4.6,1.5-8.4,4.4-11.5c2.9-3.1,6.4-4.6,10.5-4.6c1.2,0,2.1,0.3,2.7,0.9c0.6,0.6,1,1.3,1,2.2s-0.3,1.6-1,2.2c-0.4,0.5-1.4,0.8-3,1
		c-2.4,0.2-4.5,1.3-6,3.1c-1.6,1.8-2.4,4.1-2.4,6.7v46.4c0,3.1-0.5,5.6-1.5,7.4C29.8,96.2,28,98.1,25.5,100z"/>
</g>
<g id="bezier">
	<path id="curve" class="st1" d="M109.1,60.7C58.6,84.4,52.1,120,74.9,168"/>
	<line id="arm_1_" class="st2" x1="59.5" y1="83.9" x2="148.5" y2="42.2"/>
	<line id="arm" class="st2" x1="74.9" y1="168" x2="51.2" y2="119.1"/>
	<circle id="handle_2_" cx="59.7" cy="83.9" r="1.9"/>
	<circle id="handle_1_" cx="148.1" cy="42.3" r="1.9"/>
	<circle id="handle" cx="51.4" cy="119.4" r="1.9"/>
	
		<rect id="node_1_" x="106.9" y="59.2" transform="matrix(0.3993 0.9168 -0.9168 0.3993 120.9842 -62.9702)" class="st3" width="3.4" height="3.4"/>
	
		<rect id="node" x="73.3" y="166.3" transform="matrix(0.4355 0.9002 -0.9002 0.4355 193.5056 27.3599)" class="st3" width="3.4" height="3.4"/>
</g>
</svg>
