<?xml version="1.0" encoding="utf-8"?>
<!-- Generator: Adobe Illustrator 18.1.1, SVG Export Plug-In . SVG Version: 6.00 Build 0)  -->
<svg version="1.1" id="Layer_1" xmlns="http://www.w3.org/2000/svg" xmlns:xlink="http://www.w3.org/1999/xlink" x="0px" y="0px"
	 viewBox="0 0 200 200" enable-background="new 0 0 200 200" xml:space="preserve">
<path d="M199.5,38.1c-7.6,3.3-15.3,5.4-23.4,6.5c8.7-4.9,15.3-13.1,18-22.9c-8.2,4.9-16.9,8.2-26.1,9.8c-7.7-8.1-18-13.1-30-13.1
	C115,18.5,97,37,97,59.4c0,3.3,0.5,6.5,1.1,9.3c-34.3-1.6-64.3-18-85-43.1c-3.8,6-5.4,13.1-5.4,20.7c0,14.2,7.1,26.7,18.5,34.3
	c-6.5,0-13.1-2.2-18.5-4.9v0.5c0,20.2,14.2,36.5,33.2,40.3c-3.3,1.1-7.1,1.6-10.9,1.6c-2.7,0-5.4,0-7.6-0.5
	C27.7,134.1,43,146,61,146c-14.2,10.9-31.6,17.5-51.2,17.5c-3.3,0-6.5,0-9.8-0.5c18,11.4,39.8,18.5,63.2,18.5
	c75.8,0,117.2-62.7,117.2-117.2c0-1.6,0-3.8,0-5.4C186.9,54,194,46.9,199.5,38.1z"/>
</svg>
